# xmcd
# 
# Track frame offsets:
#     182
#     15012
#     26157
#     33222
#     46377
#     61750
#     75877
#     91167
#     105062
#     117372
#     121457
#     134782
#     149075
#     164207
#     186902
#     188375
#     207060
#     208760
#     221057
# 
# Disc length: 3025
# 
# Revision: 15
# Processed by: cddbd v1.5.2PL0 Copyright (c) Steve Scherf et al.
# Submitted via: fre:ac v1.0.27
# 
DISCID=040bcf13
DTITLE=The Jimi Hendrix Experience - BBC Sessions
DYEAR=1998
DGENRE=Rock
TTITLE0=Purple Haze
TTITLE1=Killing Floor
TTITLE2=Radio One
TTITLE3=Wait Until Tomorrow
TTITLE4=Day Tripper
TTITLE5=Spanish Castle Magic
TTITLE6=Jammin'
TTITLE7=I Was Made To Love Her
TTITLE8=Foxy Lady
TTITLE9=A Brand New Sound
TTITLE10=Hey Joe
TTITLE11=Manic Depression
TTITLE12=Driving South
TTITLE13=Hear My Train A Comin'
TTITLE14=A Happening For Lulu
TTITLE15=Voodoo Child (Slight Return)
TTITLE16=Lulu Introduction
TTITLE17=Hey Joe
TTITLE18=Sunshine Of Your Love
EXTD=
EXTT0=
EXTT1=
EXTT2=
EXTT3=
EXTT4=
EXTT5=
EXTT6=
EXTT7=
EXTT8=
EXTT9=
EXTT10=
EXTT11=
EXTT12=
EXTT13=
EXTT14=
EXTT15=
EXTT16=
EXTT17=
EXTT18=
PLAYORDER=
